<svg id="Layer_1" data-name="Layer 1" xmlns="http://www.w3.org/2000/svg" viewBox="0 0 932.25 634.78"><defs><style>.cls-1{fill:none;stroke:lime;stroke-miterlimit:10;}</style></defs><path class="cls-1" d="M680.57,678.64a384.9,384.9,0,0,0-141.88,199c-3.42,11.33-5.82,25.07,2.19,33.78,6.41,7,17,7.78,26.45,7.7,87.06-.72,167.25-39.71,242.55-79.69,48.67-25.85,98.59-50,146-78.15,13.6-8.09,72-48.74,25.81-53.71-33-3.55-66.48,5.61-95.56,21.58S832,767.55,809.35,791.76c-33,35.29-62.34,76.31-76.73,122.94-12,38.95-20.65,99.8,28.63,116,23.6,7.79,49.39,2.46,73.29-4.37,63-18,123.22-45.15,179-79.42a780.44,780.44,0,0,0,81.39-57.54q19.38-15.63,37.76-32.48c9-8.26,31.51-19.4,31.18-33.73-15.19-.56-28.3,5.81-40,15-23.66,18.57-44.69,40.26-64.83,62.59-33.15,36.76-64.26,75.68-88.56,118.79-12.81,22.72-23.86,47.25-25.31,73.29-.76,13.61,2.41,29.33,14.27,36.05,7.48,4.25,16.64,3.84,25.21,3,125.44-11.86,237.35-81.73,339.34-155.72,6.91-5,14.63-12,12.94-20.39-1-5-5.23-8.7-9.73-11-19.18-10-43-.55-59.8,13.07-57.58,46.68-88.53,138.71-66.56,209.75,3.45,11.18,8.9,22.89,19.41,28,7.92,3.87,17.22,3.23,26,2.18a356.37,356.37,0,0,0,204-97.3c1.92-1.87,3.93-4,4.37-6.6.82-4.93-4.14-9-9-10.35-12.2-3.49-25,2.5-35.52,9.68-56.84,39-90.28,136.26-38.7,192.37,23.64,25.73,64.8,35.31,95.53,18.66" transform="translate(-535 -678.23)"/></svg>