<svg id="Layer_1" data-name="Layer 1" xmlns="http://www.w3.org/2000/svg" viewBox="0 0 225.54 75.18"><defs><style>.cls-1{fill:#fff;}</style></defs><polygon class="cls-1" points="131.56 0 131.56 18.8 150.36 18.8 150.36 37.59 131.56 37.59 131.56 18.8 112.77 18.8 112.77 0 93.97 0 93.97 37.59 75.18 37.59 75.18 56.38 56.38 56.38 56.38 75.18 93.97 75.18 93.97 56.38 187.95 56.38 187.95 18.8 206.74 18.8 206.74 56.38 225.54 56.38 225.54 0 131.56 0"/><polygon class="cls-1" points="18.8 37.59 18.8 18.8 56.38 18.8 56.38 37.59 75.18 37.59 75.18 0 0 0 0 56.38 56.38 56.38 56.38 37.59 18.8 37.59"/></svg>