<svg id="Layer_1" data-name="Layer 1" xmlns="http://www.w3.org/2000/svg" viewBox="0 0 888.45 619.41"><defs><style>.cls-1{fill:none;stroke:#333;stroke-miterlimit:10;}</style></defs><line class="cls-1" x1="0.5" y1="0.18" x2="0.5" y2="619.23"/><line class="cls-1" x1="39.08" y1="0.18" x2="39.08" y2="619.23"/><line class="cls-1" x1="77.67" y1="0.18" x2="77.67" y2="619.23"/><line class="cls-1" x1="116.25" y1="0.18" x2="116.25" y2="619.23"/><line class="cls-1" x1="154.84" y1="0.18" x2="154.84" y2="619.23"/><line class="cls-1" x1="193.42" y1="0.18" x2="193.42" y2="619.23"/><line class="cls-1" x1="232.01" y1="0.18" x2="232.01" y2="619.23"/><line class="cls-1" x1="270.59" y1="0.18" x2="270.59" y2="619.23"/><line class="cls-1" x1="309.18" y1="0.18" x2="309.18" y2="619.23"/><line class="cls-1" x1="347.76" y1="0.18" x2="347.76" y2="619.23"/><line class="cls-1" x1="386.35" y1="0.18" x2="386.35" y2="619.23"/><line class="cls-1" x1="424.93" y1="0.18" x2="424.93" y2="619.23"/><line class="cls-1" x1="463.52" y1="0.18" x2="463.52" y2="619.23"/><line class="cls-1" x1="502.1" y1="0.18" x2="502.1" y2="619.23"/><line class="cls-1" x1="540.69" y1="0.18" x2="540.69" y2="619.23"/><line class="cls-1" x1="579.27" y1="0.18" x2="579.27" y2="619.23"/><line class="cls-1" x1="617.86" y1="0.18" x2="617.86" y2="619.23"/><line class="cls-1" x1="656.44" y1="0.18" x2="656.44" y2="619.23"/><line class="cls-1" x1="695.03" y1="0.18" x2="695.03" y2="619.23"/><line class="cls-1" x1="733.61" y1="0.18" x2="733.61" y2="619.23"/><line class="cls-1" x1="772.2" y1="0.18" x2="772.2" y2="619.23"/><line class="cls-1" x1="810.78" y1="0.18" x2="810.78" y2="619.23"/><line class="cls-1" x1="849.37" y1="0.18" x2="849.37" y2="619.23"/><line class="cls-1" x1="887.95" y1="0.18" x2="887.95" y2="619.23"/><line class="cls-1" x1="887.4" y1="0.5" x2="1.06" y2="0.5"/><line class="cls-1" x1="887.4" y1="39.15" x2="1.06" y2="39.15"/><line class="cls-1" x1="887.4" y1="77.8" x2="1.06" y2="77.8"/><line class="cls-1" x1="887.4" y1="116.45" x2="1.06" y2="116.45"/><line class="cls-1" x1="887.4" y1="155.1" x2="1.06" y2="155.1"/><line class="cls-1" x1="887.4" y1="193.75" x2="1.06" y2="193.75"/><line class="cls-1" x1="887.4" y1="232.41" x2="1.06" y2="232.41"/><line class="cls-1" x1="887.4" y1="271.06" x2="1.06" y2="271.06"/><line class="cls-1" x1="887.4" y1="309.71" x2="1.06" y2="309.71"/><line class="cls-1" x1="887.4" y1="348.36" x2="1.06" y2="348.36"/><line class="cls-1" x1="887.4" y1="387.01" x2="1.06" y2="387.01"/><line class="cls-1" x1="887.4" y1="425.66" x2="1.06" y2="425.66"/><line class="cls-1" x1="887.4" y1="464.31" x2="1.06" y2="464.31"/><line class="cls-1" x1="887.4" y1="502.96" x2="1.06" y2="502.96"/><line class="cls-1" x1="887.4" y1="541.61" x2="1.06" y2="541.61"/><line class="cls-1" x1="887.4" y1="580.26" x2="1.06" y2="580.26"/><line class="cls-1" x1="887.4" y1="618.91" x2="1.06" y2="618.91"/></svg>