<svg id="Layer_1" data-name="Layer 1" xmlns="http://www.w3.org/2000/svg" viewBox="0 0 888.45 619.69"><defs><style>.cls-1{fill:none;stroke:#333;stroke-miterlimit:10;}</style></defs><line class="cls-1" x1="0.5" x2="0.5" y2="619.05"/><line class="cls-1" x1="39.08" x2="39.08" y2="619.05"/><line class="cls-1" x1="77.67" x2="77.67" y2="619.05"/><line class="cls-1" x1="116.25" x2="116.25" y2="619.05"/><line class="cls-1" x1="154.84" x2="154.84" y2="619.05"/><line class="cls-1" x1="193.42" x2="193.42" y2="619.05"/><line class="cls-1" x1="232.01" x2="232.01" y2="619.05"/><line class="cls-1" x1="270.59" x2="270.59" y2="619.05"/><line class="cls-1" x1="309.18" x2="309.18" y2="619.05"/><line class="cls-1" x1="347.76" x2="347.76" y2="619.05"/><line class="cls-1" x1="386.35" x2="386.35" y2="619.05"/><line class="cls-1" x1="424.93" x2="424.93" y2="619.05"/><line class="cls-1" x1="463.52" x2="463.52" y2="619.05"/><line class="cls-1" x1="502.1" x2="502.1" y2="619.05"/><line class="cls-1" x1="540.69" x2="540.69" y2="619.05"/><line class="cls-1" x1="579.27" x2="579.27" y2="619.05"/><line class="cls-1" x1="617.86" x2="617.86" y2="619.05"/><line class="cls-1" x1="656.44" x2="656.44" y2="619.05"/><line class="cls-1" x1="695.03" x2="695.03" y2="619.05"/><line class="cls-1" x1="733.61" x2="733.61" y2="619.05"/><line class="cls-1" x1="772.2" x2="772.2" y2="619.05"/><line class="cls-1" x1="810.78" x2="810.78" y2="619.05"/><line class="cls-1" x1="849.37" x2="849.37" y2="619.05"/><line class="cls-1" x1="887.95" x2="887.95" y2="619.05"/><line class="cls-1" x1="656.98" y1="0.78" x2="1.62" y2="0.78"/><line class="cls-1" x1="656.98" y1="39.43" x2="1.62" y2="39.43"/><line class="cls-1" x1="656.98" y1="78.08" x2="1.62" y2="78.08"/><line class="cls-1" x1="656.98" y1="116.73" x2="1.62" y2="116.73"/><line class="cls-1" x1="656.98" y1="155.38" x2="1.62" y2="155.38"/><line class="cls-1" x1="656.98" y1="194.03" x2="1.62" y2="194.03"/><line class="cls-1" x1="656.98" y1="232.68" x2="1.62" y2="232.68"/><line class="cls-1" x1="656.98" y1="271.33" x2="1.62" y2="271.33"/><line class="cls-1" x1="656.98" y1="309.98" x2="1.62" y2="309.98"/><line class="cls-1" x1="656.98" y1="348.63" x2="1.62" y2="348.63"/><line class="cls-1" x1="656.98" y1="387.29" x2="1.62" y2="387.29"/><line class="cls-1" x1="656.98" y1="425.94" x2="1.62" y2="425.94"/><line class="cls-1" x1="656.98" y1="464.59" x2="1.62" y2="464.59"/><line class="cls-1" x1="656.98" y1="503.24" x2="1.62" y2="503.24"/><line class="cls-1" x1="656.98" y1="541.89" x2="1.62" y2="541.89"/><line class="cls-1" x1="656.98" y1="580.54" x2="1.62" y2="580.54"/><line class="cls-1" x1="656.98" y1="619.19" x2="1.62" y2="619.19"/></svg>