<svg id="Layer_1" data-name="Layer 1" xmlns="http://www.w3.org/2000/svg" viewBox="0 0 619.05 888.45"><defs><style>.cls-1{fill:none;stroke:#0026f5;stroke-miterlimit:10;}</style></defs><line class="cls-1" y1="887.95" x2="619.05" y2="887.95"/><line class="cls-1" y1="849.37" x2="619.05" y2="849.37"/><line class="cls-1" y1="810.78" x2="619.05" y2="810.78"/><line class="cls-1" y1="772.2" x2="619.05" y2="772.2"/><line class="cls-1" y1="733.61" x2="619.05" y2="733.61"/><line class="cls-1" y1="695.03" x2="619.05" y2="695.03"/><line class="cls-1" y1="656.44" x2="619.05" y2="656.44"/><line class="cls-1" y1="617.86" x2="619.05" y2="617.86"/><line class="cls-1" y1="579.27" x2="619.05" y2="579.27"/><line class="cls-1" y1="540.69" x2="619.05" y2="540.69"/><line class="cls-1" y1="502.1" x2="619.05" y2="502.1"/><line class="cls-1" y1="463.52" x2="619.05" y2="463.52"/><line class="cls-1" y1="424.93" x2="619.05" y2="424.93"/><line class="cls-1" y1="386.35" x2="619.05" y2="386.35"/><line class="cls-1" y1="347.76" x2="619.05" y2="347.76"/><line class="cls-1" y1="309.18" x2="619.05" y2="309.18"/><line class="cls-1" y1="270.59" x2="619.05" y2="270.59"/><line class="cls-1" y1="232.01" x2="619.05" y2="232.01"/><line class="cls-1" y1="193.42" x2="619.05" y2="193.43"/><line class="cls-1" y1="154.84" x2="619.05" y2="154.84"/><line class="cls-1" y1="116.25" x2="619.05" y2="116.26"/><line class="cls-1" y1="77.67" x2="619.05" y2="77.67"/><line class="cls-1" y1="39.08" x2="619.05" y2="39.09"/><line class="cls-1" y1="0.5" x2="619.05" y2="0.5"/></svg>