<svg id="Layer_1" data-name="Layer 1" xmlns="http://www.w3.org/2000/svg" viewBox="0 0 838.84 1340.28"><defs><style>.cls-1{fill:none;stroke:lime;stroke-miterlimit:10;}</style></defs><path class="cls-1" d="M19.53,216.18,359.49,79c53.43-21.55,108.7-43.45,166.29-42.24-38.07,65-100.35,112.57-166.16,149.26s-136.4,64.15-202.9,99.59C349.65,230.31,551,192,750.63,212.43,584.81,321.35,383.24,357.91,187.81,392.1c204.64,21.59,413,13.76,614.13,57.15,14.68,3.17,31.64,8.64,36.3,22.92-85.09,47.06-184.52,60.56-281.64,65.44s-195.17,2.08-290.72,20.09a436.67,436.67,0,0,0,63.51-249.78c-5.5-104.18-48.23-203-61.18-306.51C202.32,101.63,119,189,36.19,275.78,258.25,167.69,504.6,102.93,751.33,113.68c26.92,1.18,54.66,3.47,78.58,15.88-8.71,17.66-27.83,27.28-45.85,35.23-194.07,85.63-409.88,119.8-594.64,224-16.55,9.34-33.91,20.5-40.59,38.29a435.89,435.89,0,0,1,156.29-4.52c-85.16,49.1-185.2,63.83-282.53,77.65-5.82.82-12.37,1.47-17-2.16C-.33,493.41.08,484.47,1.12,477a1231.74,1231.74,0,0,1,49-212.19c5.68-17.38,13.29-36.42,29.93-44"/><path class="cls-1" d="M427.69,580.51c-50.31-1.55-101.12-3-150.53,6.66s-98,31.32-131.09,69.25c-31,35.51-46.21,83-48.32,130.05-2.15,47.88,9.16,97.3,37.47,136,13.33,18.23,30.47,34,50.82,43.77C243.69,994,313.1,969,366.39,933.63A495.39,495.39,0,0,0,492.26,813.06c10.23-14,20.11-30,19-47.32-1.14-18.09-14.54-33.67-30.61-42S446.1,713,428,711.75c-26.56-1.87-55.55-1-76.44,15.47-26.79,21.14-30.73,60.58-24.78,94.18,7.6,42.88,27.43,82.71,50.67,119.55,15.42,24.45,33.17,48.56,58,63.38,38.93,23.22,88.21,19.55,132.2,8.58,59.11-14.75,116.53-42.37,157.4-87.56,27.12-30,46.17-75.76,24.78-110.06-21.82-35-75.75-36.6-109.91-13.51s-52.71,62.79-67.51,101.28c-34.17,88.82-57.21,184-48.57,278.77,3.9,42.78,15.14,86.73,43.43,119.06s76.92,49.62,115.93,31.63"/></svg>