<svg id="Layer_1" data-name="Layer 1" xmlns="http://www.w3.org/2000/svg" viewBox="0 0 138.44 46.15"><defs><style>.cls-1{fill:#0026f5;}</style></defs><polygon class="cls-1" points="80.76 0 80.76 11.54 92.29 11.54 92.29 23.07 80.76 23.07 80.76 11.54 69.22 11.54 69.22 0 57.68 0 57.68 23.07 46.15 23.07 46.15 34.61 34.61 34.61 34.61 46.15 57.68 46.15 57.68 34.61 115.36 34.61 115.36 11.54 126.9 11.54 126.9 34.61 138.44 34.61 138.44 0 80.76 0"/><polygon class="cls-1" points="11.54 23.07 11.54 11.54 34.61 11.54 34.61 23.07 46.15 23.07 46.15 0 0 0 0 34.61 34.61 34.61 34.61 23.07 11.54 23.07"/></svg>